<svg viewBox="0 0 864 864" width="64px" height="64px" aria-hidden="true" class="creative__Svg-sc-1fngivi-0 cHTWmT">
    <title>Strain effect - Creative</title>
    <path class="cls-1" d="M141.84045,337.21876q-6.82232,55.38354,10.55,114.90924c13.50989,46.39239,36.89679,86.26831,65.56012,122.45819a271.02734,271.02734,0,0,0,33.21893,35.94708V733.78333a26.43781,26.43781,0,0,0,26.43781,26.43781h183.745a26.43781,26.43781,0,0,0,26.43781-26.43781v-34.537c39.29883,3.62085,71.876,3.77862,90.16022,6.07812,9.45337.96985,18.92376,2.40265,28.38617,2.39844,11.08325-.00434,21.81274-2.89874,30.99359-10.46515,10.49481-8.64923,13.41827-21.23425,13.56421-35.108.29327-27.85431.72027-55.7085.81659-83.56384.01513-4.38172,1.34179-6.08338,4.88684-6.906,9.14587-2.121,18.25171-4.47137,27.35931-6.79925,15.084-3.85578,20.42285-22.70765,10.0863-35.62653-2.16027-2.70032-4.47875-5.2384-6.71978-7.85547-13.69263-15.9873-26.828-32.45892-36.81275-51.83038a59.896,59.896,0,0,1-6.71215-31.343c.42456-7.61969.83355-15.2959,2.01-22.79517,3.1554-20.10962,3.81189-40.19384-.02026-60.21167q-1.75553-9.17083-3.87512-17.99975"></path>
    <path class="cls-1" d="M452.12254,353.55153l-67.27723,51.5294-127.84-219.71562a16.61021,16.61021,0,0,1,4.81365-22.18952l0,0a16.61021,16.61021,0,0,1,21.39439,2.13054Z"></path>
    <polygon class="cls-1" points="456.482 454.359 479.106 437.048 452.123 353.552 384.845 405.081 456.482 454.359"></polygon>
    <circle class="cls-2" cx="447.14892" cy="246.4979" r="19.49061"></circle>
    <circle class="cls-2" cx="283.21338" cy="366.45745" r="18.91311"></circle>
    <circle class="cls-2" cx="342.82392" cy="447.94696" r="20.82036" transform="translate(-210.13493 559.39754) rotate(-63.96782)"></circle>
    <path class="cls-1" d="M524.8278,398.81291C500.42188,378.801,478.64639,335.941,505.96,309.50693c10.20286-9.87429,23.86309-15.21925,37.27207-19.88825,9.59458-3.34082,20.79235-5.08908,29.48342-10.52962,18.713-11.71491,2.72626-33.53529-6.89342-45.80246-46.11325-58.80441-146.12255-106.29032-215.82-60.9887l-1.17812.77495"></path>
    <path class="cls-1" d="M251.19632,254.77905s-72.554,97.88967.11771,193.04384S430.37118,530.4273,430.37118,530.4273"></path>
    <path class="cls-1" d="M514.89224,548.58015c7.29191,1.73018,22.83406-23.13176,25.71366-49.58092.9849-9.04605,2.77742-25.51-7.43024-41.17876-2.56767-3.94137-11.17254-17.14989-28.3925-20.97613-19.14388-4.25363-33.81441,6.44831-35.72455,7.89151-1.28924.974-22.77555,17.70593-17.23531,37.9381,5.08266,18.56106,30.26717,27.70258,43.34931,23.72282,1.5481-.47092,2.56281-1.015,4.12829-.7129C510.74125,507.89131,506.293,546.53978,514.89224,548.58015Z"></path>
</svg>