<svg viewBox="0 0 864 864" width="64px" height="64px" aria-hidden="true" class="giggly__Svg-oq7bj7-0 hfgwFY">
    <title>Strain effect - Giggly</title>
    <path class="cls-1" d="M429.85219,109.51331c-173.12939,0-313.47851,140.34912-313.47851,313.47857a313.2379,313.2379,0,0,0,14.91552,95.752,38.519,38.519,0,0,1,28.00977,6.75622c9.23071,6.60608,15.13574,16.92572,18.22949,27.93677a182.9601,182.9601,0,0,1,15.3147-17.38086c58.52612-58.526,145.001-66.94067,193.147-18.79468,48.14624,48.146,39.7312,134.62085-18.79468,193.14691a182.8223,182.8223,0,0,1-17.78833,15.62439,313.89236,313.89236,0,0,0,80.44507,10.43793c173.1294,0,313.47852-140.34918,313.47852-313.47864S602.98159,109.51331,429.85219,109.51331Z"></path>
    <path class="cls-1" d="M508.11909,311.21442a53.032,53.032,0,0,1,106.064,0"></path>
    <path class="cls-1" d="M244.98965,311.21442a53.032,53.032,0,0,1,106.064,0"></path>
    <line class="cls-2" x1="357.05373" y1="496.77028" x2="585.50658" y2="496.77028"></line>
    <path class="cls-1" d="M644.80971,401.28613h-429.915a219.42123,219.42123,0,0,0,8.87329,109.952c55.07032-34.93616,122.012-34.18695,162.22217,6.02319,34.64038,34.64032,39.99976,89.12158,18.48413,138.7594a220.45357,220.45357,0,0,0,25.37793,1.47693c120.53833,0,218.25415-97.71576,218.25415-218.25421A219.60727,219.60727,0,0,0,644.80971,401.28613Z"></path>
    <path class="cls-1" d="M385.99013,517.26129c-40.2102-40.21014-107.15185-40.95935-162.22217-6.02319a180.55063,180.55063,0,0,0-30.9248,24.81787,182.9601,182.9601,0,0,0-15.3147,17.38086c-3.09375-11.011-8.99878-21.33069-18.22949-27.93677a38.519,38.519,0,0,0-28.00977-6.75622q-.99828.15645-1.98755.36914a35.484,35.484,0,0,0-24.11816,18.693c-6.00708,12.32111-3.9812,26.96417-.5896,40.24554,6.979,27.33063,19.07178,52.96228,31.74072,78.0434,2.84058,5.62329,5.71656,11.22882,8.583,16.839,3.98413,21.257,13.61621,40.75452,29.13086,56.26916,43.46924,43.46924,118.17993,40.826,175.35864-3.17047a182.8223,182.8223,0,0,0,17.78833-15.62439,176.43657,176.43657,0,0,0,37.27881-54.38751C425.98989,606.38287,420.63051,551.90161,385.99013,517.26129Z"></path>
    <path class="cls-3" d="M157.64506,603.88154s6.95252-35.4941,19.88327-50.44472"></path>
    <path class="cls-4" d="M154.17419,603.20168c.013-4.8275.20673-9.51651.53592-14.30946.33506-4.77654.81-9.57964,1.55072-14.44263a114.65877,114.65877,0,0,1,3.11576-14.8644c.18173-.635.335-1.26714.54477-1.90924l.65506-1.93528c.45825-1.29765.8399-2.58477,1.45547-3.92549.59342-1.337,1.09964-2.65738,1.811-4.02939q1.1277-2.07248,2.34017-4.16146l.456-.78489a15.451,15.451,0,1,1,26.72,15.52341,15.73046,15.73046,0,0,1-4.48547,4.88647,34.404,34.404,0,0,0-6.94522,7.49447,93.4987,93.4987,0,0,0-6.53193,10.55022c-2.05935,3.75738-3.96554,7.71-5.76574,11.73816-.90534,2.01245-1.77426,4.05275-2.61417,6.10423-.83524,2.02747-1.66846,4.17293-2.39517,6.11165a5.39633,5.39633,0,0,1-10.449-1.897Z"></path>
</svg>