<svg viewBox="0 0 864 864" width="64px" height="64px" aria-hidden="true" class="sleepy__Svg-n6spmh-0 OrKue">
    <title>Strain effect - Sleepy</title>
    <path class="cls-1" d="M757.4906,404.39832c-2.91338,10.12465-4.89483,20.63748-8.92071,30.29861-10.64423,25.54266-29.03428,44.04283-54.27071,55.48413-4.03392,1.82906-5.626,3.83467-5.59787,8.51326C689.04406,555.347,648.126,601.306,591.63916,607.46894a99.6884,99.6884,0,0,1-47.50657-6.18532c-3.86428-1.51018-5.53231-.83761-7.64891,2.6819-42.53726,70.73365-143.06,70.60282-185.62227-.24585-2.02515-3.37114-3.57357-3.75587-7.16871-2.49989-63.9304,22.33168-129.3402-14.6011-143.14107-80.94484-1.56193-7.50917-1.57085-15.39156-1.75746-23.11408-.082-3.39616-1.12976-4.93336-4.1915-6.32334-42.88979-19.46718-68.2375-60.29443-64.17625-107.08616,3.70757-42.715,26.28624-73.25281,65.65306-90.7854,4.4825-1.99641,5.36583-3.80677,4.37783-8.59521C188.2845,225.37,231.019,165.918,290.77028,157.952a111.50639,111.50639,0,0,1,61.73789,9.12371c1.074-1.28675,2.16347-2.4444,3.08734-3.72137,17.99122-24.86464,42.08036-39.79354,72.44078-44.56041a21.776,21.776,0,0,0,3.4485-1.13666h24.51153a5.9912,5.9912,0,0,0,1.63324.80368c31.52813,4.605,56.60612,19.76882,74.89668,45.9018,1.91244,2.7328,3.56955,2.36129,6.12637,1.25972,18.60341-8.01524,37.91215-10.344,58.02946-7.68629,59.68,7.885,102.44265,67.43554,90.31728,126.4159-.992,4.82553.05348,6.64136,4.52333,8.5469,27.15577,11.57587,46.69311,31.09251,57.83594,58.40815,3.71878,9.11653,5.47739,19.03271,8.132,28.58342Z"></path>
    <path class="cls-1" d="M166.6304,740.22345a26.89454,26.89454,0,1,1,27.06885-26.74187A26.66921,26.66921,0,0,1,166.6304,740.22345Z"></path>
    <path class="cls-1" d="M316.06632,682.92477c.17856,21.28157-17.06275,39.17819-37.85924,39.29838-22.7443.13141-40.38271-16.62942-40.538-38.52058-.15786-22.22989,16.72345-39.73689,38.45445-39.88009C298.53516,643.675,315.87942,660.65434,316.06632,682.92477Z"></path>
    <polyline class="cls-1" points="472.038 254.827 560.558 254.827 472.038 362.396 560.558 362.396"></polyline>
    <polyline class="cls-1" points="437.987 474.028 491.165 474.028 437.987 538.649 491.165 538.649"></polyline>
    <polyline class="cls-1" points="298.386 338.147 375.046 338.147 298.386 431.302 375.046 431.302"></polyline>
</svg>