<svg viewBox="0 0 864 864" width="64px" height="64px" aria-hidden="true" class="uplifted__Svg-sc-14niyod-0 bdGjqS">
    <title>Strain effect - Uplifted</title>
    <path class="cls-1" d="M718.408,477.35742c.45929,0,.91467-.01587,1.36938-.03467h.10358v-.00268a32.66247,32.66247,0,0,0-1.31085-65.29151,34.24248,34.24248,0,0,0-60.46942-29.95825,42.51819,42.51819,0,0,0-84.879,3.66016c0,.79639.02606,1.5863.0694,2.37182a31.74493,31.74493,0,0,0-47.11267,24.04249c-.89258-.07325-1.79255-.12037-2.704-.12037a32.8125,32.8125,0,0,0-6.51026.65064,641.30871,641.30871,0,0,0,15.05438,64.6477H717.03864C717.49329,477.34155,717.94873,477.35742,718.408,477.35742Z"></path>
    <path class="cls-1" d="M512.38513,266.501H590.363L447.29529,101.11792,304.228,266.501h77.97766s18.39929,88.39843-23.65613,224.323a328.56178,328.56178,0,0,1-14.45044,37.87793,38.18857,38.18857,0,0,1,65.98193,35.27466,36.42856,36.42856,0,0,1,1.462,72.81983v.00293h-.11554c-.50708.021-1.015.03857-1.52722.03857s-1.02014-.01758-1.52728-.03857H276.07764C224.31714,701.70361,170.38843,745.564,170.38843,745.564H724.20221s-146.10547-118.8153-188.16089-254.74q-2.11442-6.83367-4.02277-13.50122a641.30871,641.30871,0,0,1-15.05438-64.6477C500.84009,322.00891,512.38513,266.501,512.38513,266.501Z"></path>
    <path class="cls-1" d="M409.90033,636.83789c.51221,0,1.02014-.01758,1.52722-.03857h.11554v-.00293a36.42856,36.42856,0,0,0-1.462-72.81983,38.18623,38.18623,0,0,0-65.98193-35.27466c-.50415.60621-.99316,1.22535-1.45972,1.86231a47.42054,47.42054,0,0,0-94.66552,4.08227c0,.88807.029,1.769.07739,2.64515a35.4051,35.4051,0,0,0-52.5448,26.81457c-.99548-.08154-1.99915-.134-3.01575-.134a36.43286,36.43286,0,0,0,0,72.86572c.7992,0,1.58972-.03491,2.376-.08569v.04712H408.37305C408.88019,636.82031,409.38812,636.83789,409.90033,636.83789Z"></path>
</svg>